HIERARCHY
ROOT Hips
{
    OFFSET 0.000000 0.000000 0.000000
    CHANNELS 6 Xposition Yposition Zposition Zrotation Yrotation Xrotation
    JOINT Chest
    {
        OFFSET 0.000000 1.634758 -0.000000
        CHANNELS 3 Zrotation Yrotation Xrotation
        JOINT Chest2
        {
            OFFSET 0.000000 2.197341 0.000000
            CHANNELS 3 Zrotation Yrotation Xrotation
            JOINT Neck
            {
                OFFSET 0.000000 0.961544 0.000000
                CHANNELS 3 Zrotation Yrotation Xrotation
                JOINT Head
                {
                    OFFSET 0.000000 0.632542 -0.032565
                    CHANNELS 3 Zrotation Yrotation Xrotation
                    End Site
                    {
                        OFFSET -0.000001 0.439502 2.922845
                    }
                }
            }
            JOINT LeftCollar
            {
                OFFSET 0.167536 0.778237 -0.168280
                CHANNELS 3 Zrotation Yrotation Xrotation
                JOINT LeftShoulder
                {
                    OFFSET 0.831514 -0.002900 0.006458
                    CHANNELS 3 Zrotation Yrotation Xrotation
                    JOINT LeftElbow
                    {
                        OFFSET 2.272872 -0.026639 0.059314
                        CHANNELS 3 Zrotation Yrotation Xrotation
                        JOINT LeftWrist
                        {
                            OFFSET 2.081982 -0.024402 0.054333
                            CHANNELS 3 Zrotation Yrotation Xrotation
                            JOINT LeftHandThumb1
                            {
                                OFFSET 0.218903 -0.128645 0.283837
                                CHANNELS 3 Zrotation Yrotation Xrotation
                                JOINT LeftHandThumb2
                                {
                                    OFFSET 0.137157 -0.025101 0.077902
                                    CHANNELS 3 Zrotation Yrotation Xrotation
                                    JOINT LeftHandThumb3
                                    {
                                        OFFSET 0.165627 -0.069871 0.035000
                                        CHANNELS 3 Zrotation Yrotation Xrotation
                                        End Site
                                        {
                                            OFFSET 0.240502 -0.031839 0.113935
                                        }
                                    }
                                }
                            }
                            JOINT LeftHandFore1
                            {
                                OFFSET 0.767340 -0.016076 0.196678
                                CHANNELS 3 Zrotation Yrotation Xrotation
                                JOINT LeftHandFore2
                                {
                                    OFFSET 0.209953 0.015152 0.051820
                                    CHANNELS 3 Zrotation Yrotation Xrotation
                                    JOINT LeftHandFore3
                                    {
                                        OFFSET 0.122798 0.026915 0.030968
                                        CHANNELS 3 Zrotation Yrotation Xrotation
                                        End Site
                                        {
                                            OFFSET 0.184280 0.040231 0.042296
                                        }
                                    }
                                }
                            }
                            JOINT LeftHandMiddle1
                            {
                                OFFSET 0.709887 -0.008320 0.018526
                                CHANNELS 3 Zrotation Yrotation Xrotation
                                JOINT LeftHandMiddle2
                                {
                                    OFFSET 0.241629 0.012926 0.038888
                                    CHANNELS 3 Zrotation Yrotation Xrotation
                                    JOINT LeftHandMiddle3
                                    {
                                        OFFSET 0.144308 -0.001893 0.023553
                                        CHANNELS 3 Zrotation Yrotation Xrotation
                                        End Site
                                        {
                                            OFFSET 0.227493 -0.048478 0.039078
                                        }
                                    }
                                }
                            }
                            JOINT LeftHandRing1
                            {
                                OFFSET 0.743817 -0.005823 -0.153668
                                CHANNELS 3 Zrotation Yrotation Xrotation
                                JOINT LeftHandRing2
                                {
                                    OFFSET 0.350991 0.012131 0.037307
                                    CHANNELS 3 Zrotation Yrotation Xrotation
                                    JOINT LeftHandRing3
                                    {
                                        OFFSET 0.134473 -0.013090 0.018740
                                        CHANNELS 3 Zrotation Yrotation Xrotation
                                        End Site
                                        {
                                            OFFSET 0.113610 -0.035477 0.015935
                                        }
                                    }
                                }
                            }
                            JOINT LeftHandLittle1
                            {
                                OFFSET 0.689408 -0.053302 -0.308304
                                CHANNELS 3 Zrotation Yrotation Xrotation
                                JOINT LeftHandLittle2
                                {
                                    OFFSET 0.193933 0.020976 0.001996
                                    CHANNELS 3 Zrotation Yrotation Xrotation
                                    JOINT LeftHandLittle3
                                    {
                                        OFFSET 0.119813 -0.011439 -0.003185
                                        CHANNELS 3 Zrotation Yrotation Xrotation
                                        End Site
                                        {
                                            OFFSET 0.189619 0.018207 0.001315
                                        }
                                    }
                                }
                            }
                        }
                    }
                }
            }
            JOINT RightCollar
            {
                OFFSET -0.167536 0.778237 -0.168280
                CHANNELS 3 Zrotation Yrotation Xrotation
                JOINT RightShoulder
                {
                    OFFSET -0.831514 -0.002900 0.006457
                    CHANNELS 3 Zrotation Yrotation Xrotation
                    JOINT RightElbow
                    {
                        OFFSET -2.272872 -0.026639 0.059313
                        CHANNELS 3 Zrotation Yrotation Xrotation
                        JOINT RightWrist
                        {
                            OFFSET -2.081982 -0.024402 0.054331
                            CHANNELS 3 Zrotation Yrotation Xrotation
                            JOINT RightHandThumb1
                            {
                                OFFSET -0.218911 -0.128571 0.283837
                                CHANNELS 3 Zrotation Yrotation Xrotation
                                JOINT RightHandThumb2
                                {
                                    OFFSET -0.137157 -0.025101 0.077902
                                    CHANNELS 3 Zrotation Yrotation Xrotation
                                    JOINT RightHandThumb3
                                    {
                                        OFFSET -0.167721 -0.066231 0.031977
                                        CHANNELS 3 Zrotation Yrotation Xrotation
                                        End Site
                                        {
                                            OFFSET -0.226107 -0.059529 0.131028
                                        }
                                    }
                                }
                            }
                            JOINT RightHandFore1
                            {
                                OFFSET -0.767344 -0.015991 0.196679
                                CHANNELS 3 Zrotation Yrotation Xrotation
                                JOINT RightHandFore2
                                {
                                    OFFSET -0.209943 0.015217 0.051856
                                    CHANNELS 3 Zrotation Yrotation Xrotation
                                    JOINT RightHandFore3
                                    {
                                        OFFSET -0.122349 0.026792 0.032787
                                        CHANNELS 3 Zrotation Yrotation Xrotation
                                        End Site
                                        {
                                            OFFSET -0.181733 0.039333 0.052846
                                        }
                                    }
                                }
                            }
                            JOINT RightHandMiddle1
                            {
                                OFFSET -0.709887 -0.008302 0.018525
                                CHANNELS 3 Zrotation Yrotation Xrotation
                                JOINT RightHandMiddle2
                                {
                                    OFFSET -0.241623 0.012910 0.038900
                                    CHANNELS 3 Zrotation Yrotation Xrotation
                                    JOINT RightHandMiddle3
                                    {
                                        OFFSET -0.144430 -0.001881 0.022821
                                        CHANNELS 3 Zrotation Yrotation Xrotation
                                        End Site
                                        {
                                            OFFSET -0.228371 -0.048407 0.033674
                                        }
                                    }
                                }
                            }
                            JOINT RightHandRing1
                            {
                                OFFSET -0.743819 -0.005785 -0.153669
                                CHANNELS 3 Zrotation Yrotation Xrotation
                                JOINT RightHandRing2
                                {
                                    OFFSET -0.350967 0.012167 0.037513
                                    CHANNELS 3 Zrotation Yrotation Xrotation
                                    JOINT RightHandRing3
                                    {
                                        OFFSET -0.135652 -0.012211 0.007373
                                        CHANNELS 3 Zrotation Yrotation Xrotation
                                        End Site
                                        {
                                            OFFSET -0.115021 -0.034421 0.002365
                                        }
                                    }
                                }
                            }
                            JOINT RightHandLittle1
                            {
                                OFFSET -0.689403 -0.053298 -0.308303
                                CHANNELS 3 Zrotation Yrotation Xrotation
                                JOINT RightHandLittle2
                                {
                                    OFFSET -0.193933 0.020998 0.002072
                                    CHANNELS 3 Zrotation Yrotation Xrotation
                                    JOINT RightHandLittle3
                                    {
                                        OFFSET -0.119778 -0.011746 0.003292
                                        CHANNELS 3 Zrotation Yrotation Xrotation
                                        End Site
                                        {
                                            OFFSET -0.189615 0.018131 0.002444
                                        }
                                    }
                                }
                            }
                        }
                    }
                }
            }
        }
    }
    JOINT LeftHip
    {
        OFFSET 0.685143 0.673822 -0.044491
        CHANNELS 3 Zrotation Yrotation Xrotation
        JOINT LeftKnee
        {
            OFFSET 0.085364 -3.750208 0.017676
            CHANNELS 3 Zrotation Yrotation Xrotation
            JOINT LeftAnkle
            {
                OFFSET 0.094583 -4.155206 0.019585
                CHANNELS 3 Zrotation Yrotation Xrotation
                JOINT LeftToe
                {
                    OFFSET -0.000000 -0.395925 0.621478
                    CHANNELS 3 Zrotation Yrotation Xrotation
                    End Site
                    {
                        OFFSET -0.000000 -0.077878 0.321152
                    }
                }
            }
        }
    }
    JOINT RightHip
    {
        OFFSET -0.685143 0.673822 -0.044492
        CHANNELS 3 Zrotation Yrotation Xrotation
        JOINT RightKnee
        {
            OFFSET -0.085364 -3.750208 0.017677
            CHANNELS 3 Zrotation Yrotation Xrotation
            JOINT RightAnkle
            {
                OFFSET -0.094583 -4.155206 0.019585
                CHANNELS 3 Zrotation Yrotation Xrotation
                JOINT RightToe
                {
                    OFFSET -0.000000 -0.395925 0.621478
                    CHANNELS 3 Zrotation Yrotation Xrotation
                    End Site
                    {
                        OFFSET -0.000000 -0.077878 0.321152
                    }
                }
            }
        }
    }
}
MOTION
Frames: 7
Frame Time: 0.033333
0.004124 8.271755 -0.483036 180.000000 -0.000011 180.000000 -0.542268 -1.650488 0.980091 -1.211486 0.418316 0.119584 5.393447 -2.268445 1.393285 0.183574 -3.561096 4.897114 -0.721055 -11.395827 -0.033441 -8.116219 -34.168686 3.908576 171.562561 -85.052391 -172.266525 34.815739 21.945889 -39.904453 -0.000007 0.000020 0.000016 12.147431 6.414527 1.190228 -6.101244 1.856482 3.815127 -8.481531 9.329687 -4.692478 -2.144166 -0.003185 0.123425 -2.813358 0.164335 0.559707 -67.845871 5.748601 3.643730 -122.730988 12.196130 10.396687 -26.530758 0.098269 4.122694 -72.683403 -1.422395 -0.144624 -113.047958 7.472738 9.257834 -49.012909 1.361830 7.522884 -76.943321 -7.210339 13.083530 -97.746696 -3.740634 20.189529 -94.910400 -12.299114 12.269391 1.381196 9.657021 -0.045677 29.913971 30.014315 4.592201 -176.302109 77.246338 -177.052490 -36.451050 -23.045759 -18.315844 -0.000000 -0.000003 -0.000004 11.101599 8.008564 -0.541936 -0.304434 -7.414064 0.990713 8.482103 -9.339566 -4.674259 1.925007 -0.402875 0.868050 2.740222 -0.365387 0.783506 67.846443 -5.741537 3.651564 123.145142 -16.683821 4.176297 26.396317 -2.091270 4.023964 72.687523 1.395200 -0.168097 114.554291 -17.224411 -11.183436 48.901524 -9.550633 -1.652605 76.950821 7.212321 13.043706 98.010490 -9.968690 -26.000938 95.042915 -18.558748 -17.786613 -1.521584 -6.515869 -4.713009 0.049250 0.354987 15.794827 1.023135 9.004748 -15.973599 0.013884 0.080030 -3.787691 1.096823 2.346376 -3.676305 -0.036705 -0.307261 13.626721 -9.067463 -0.765755 -13.428095 -0.114928 -0.945258 -6.698325
0.004124 8.271755 -0.483036 180.000000 -0.000011 180.000000 -0.625451 -1.790315 0.929651 -0.946092 0.408540 0.319226 4.230289 -2.590921 0.843959 0.218071 -4.228064 3.813294 -0.326723 -11.315404 -0.036183 -6.676543 -33.281376 1.427932 172.336487 -84.506325 -173.043701 28.977009 18.946131 -41.179775 -0.000006 0.000012 0.000019 11.424860 9.897199 -1.389893 -6.149885 1.874010 3.840435 -6.070058 9.337020 -5.136610 -0.575177 -0.073037 -0.162069 -1.225687 0.068198 0.244819 -63.435833 5.574722 3.401913 -117.041443 11.345178 10.680881 -23.906353 0.003198 3.720898 -68.479790 -1.483045 -0.520235 -107.855911 6.821356 9.308237 -45.950916 1.091342 7.109791 -73.157799 -7.570859 12.559014 -93.608757 -4.384869 19.511806 -90.572800 -12.302384 11.383037 0.930010 9.593246 -0.041870 26.835985 29.267679 1.428988 -176.456955 76.546501 -177.211517 -30.795639 -23.989195 -22.284983 0.000009 0.000007 -0.000007 12.451881 8.754343 3.528556 -0.283915 -7.117939 0.929204 6.096835 -9.386469 -5.135342 0.551850 -0.203550 0.459442 1.329138 -0.176019 0.391221 62.975548 -5.553635 3.381196 116.473907 -15.894745 4.979824 23.675024 -1.791981 3.658149 68.057716 1.446784 -0.537626 108.360672 -17.168169 -9.893399 45.554966 -8.982380 -1.285860 72.361931 7.673732 12.359900 93.144005 -10.707371 -24.733284 90.074471 -18.529629 -16.297876 -1.440302 -5.106716 -4.751040 0.049225 0.354901 15.790872 1.778820 7.206604 -15.946613 0.019096 0.109351 -3.724327 0.990140 0.437645 -3.720333 -0.036687 -0.307186 13.623342 -11.309806 1.323408 -13.620982 -0.143614 -1.201123 -6.812216
0.004124 8.271755 -0.483036 180.000000 -0.000011 180.000000 -0.772997 -1.510987 0.972482 -0.447049 0.296381 0.222705 3.315168 -2.944788 -0.283287 0.265911 -5.151074 1.595245 0.008406 -11.114746 -0.038235 -5.540504 -31.457939 -0.820820 172.619995 -84.274536 -173.328568 22.621473 15.493321 -42.191269 -0.000004 0.000012 -0.000005 11.469115 13.168066 -2.946671 -5.869532 1.772895 3.693218 -3.654231 9.578837 -5.717273 -0.177411 -0.088789 -0.234862 -0.769034 0.040763 0.153976 -56.055313 5.308515 2.982463 -106.055801 9.634722 10.980253 -20.615942 -0.089839 3.211831 -61.093166 -1.500658 -0.848717 -97.810379 5.558032 9.236483 -41.288883 0.723083 6.455118 -66.421394 -8.081712 12.025912 -84.894196 -5.568084 17.946955 -82.932594 -12.148972 9.830187 0.509731 9.523767 -0.037241 23.361065 26.037983 -2.653693 -176.543747 76.119125 -177.300888 -22.884499 -25.107061 -27.169001 0.000006 -0.000007 0.000003 14.485363 9.369990 6.734142 -0.251186 -6.600239 0.825738 3.695668 -9.650795 -5.723292 0.242361 -0.159420 0.366883 0.956734 -0.129169 0.286771 55.301735 -5.285264 2.939903 104.773003 -14.301413 6.142270 20.345091 -1.450110 3.192155 60.444901 1.457507 -0.860221 97.424210 -16.745396 -7.656954 40.721268 -8.123758 -0.816267 64.844322 8.289611 11.600775 83.909637 -11.799026 -22.184641 81.947281 -18.218561 -13.883543 -1.346747 -3.461323 -4.793057 0.049200 0.354811 15.786736 1.217157 5.220733 -16.041418 0.009703 0.055609 -3.732046 0.870243 -1.740016 -3.766327 -0.036667 -0.307104 13.619642 -8.365938 3.277956 -13.972734 -0.097800 -0.801873 -6.676949
0.004124 8.271755 -0.483036 180.000000 -0.000011 180.000000 -0.849744 -1.167319 1.046462 -0.176133 0.205542 0.012652 2.370466 -3.174826 -1.373354 0.299643 -5.800330 -0.547157 0.288677 -10.917443 -0.038857 -6.332048 -29.138947 -3.337245 172.460297 -84.407471 -173.168106 21.520132 11.371424 -42.596092 -0.000009 0.000012 0.000012 12.228508 16.204418 -3.575109 -5.350806 1.590487 3.414292 -1.340507 10.026052 -6.374372 -0.678196 -0.068459 -0.143317 -1.183018 0.064238 0.236554 -46.511963 5.048674 2.394885 -91.153152 7.272245 10.847660 -16.833817 -0.160424 2.621366 -51.398464 -1.447619 -1.124415 -84.132553 3.893236 8.786050 -35.434364 0.338320 5.595044 -57.458679 -8.616061 11.373432 -72.669365 -6.794275 15.497877 -72.844109 -11.639021 7.834979 0.171187 9.405063 -0.034461 21.671705 22.086306 -6.827427 -176.449112 76.583649 -177.203491 -12.499224 -18.162607 -30.375204 0.000001 -0.000000 0.000001 17.004400 9.862524 9.155096 -0.212490 -5.932277 0.700686 1.386501 -10.106179 -6.380783 0.747392 -0.231107 0.517925 1.382552 -0.184583 0.405917 45.602325 -5.033159 2.337934 89.443260 -11.903537 7.119289 16.567900 -1.096080 2.641064 50.683838 1.401567 -1.130859 83.025551 -15.577838 -4.907233 34.804348 -7.019921 -0.342901 55.137817 8.895140 10.667122 71.320686 -12.607708 -18.507509 71.529457 -17.346523 -10.889308 -1.251942 -1.768627 -4.833531 0.049175 0.354723 15.782735 -0.743612 3.886960 -16.137405 -0.013992 -0.080750 -3.801272 0.746141 -4.025317 -3.809931 -0.036648 -0.307024 13.616053 -2.592902 4.642575 -13.883128 -0.014627 -0.116225 -6.458949
0.004124 8.271755 -0.483036 180.000000 -0.000011 180.000000 -0.805813 -1.056561 1.088665 -0.314591 0.205562 -0.104719 1.607811 -3.212780 -2.855081 0.303200 -5.868717 -3.374458 2.022510 -10.770451 -0.044670 -1.569770 -27.681520 -13.806505 170.061188 -85.850082 -170.760406 23.199371 7.381673 -43.225960 -0.000008 0.000010 0.000010 13.624083 18.940720 -3.374515 -4.686131 1.362109 3.043387 0.765285 10.642025 -7.052824 -1.804900 -0.018841 0.061812 -2.207923 0.126666 0.439936 -35.612221 4.888529 1.675746 -73.645882 4.642186 9.917451 -12.734870 -0.192776 1.976356 -40.270798 -1.314797 -1.336680 -68.015526 2.134122 7.769479 -28.796272 0.011067 4.579212 -47.000393 -9.034869 10.528970 -58.036057 -7.540096 12.317995 -61.181522 -10.629370 5.679009 -1.683378 9.205514 -0.026984 15.261154 21.530586 -18.672531 -175.930679 78.658951 -176.672653 -7.448452 -9.112025 -29.582998 0.000011 0.000002 0.000001 19.818293 10.260315 10.857616 -0.174139 -5.185837 0.571839 -0.722313 -10.719309 -7.054908 1.816418 -0.386416 0.835930 2.364334 -0.313984 0.679436 34.653461 -4.886642 1.613060 71.817863 -8.917795 7.393916 12.505084 -0.756968 2.025661 39.609707 1.270102 -1.339675 66.494804 -13.451511 -2.225341 28.201565 -5.733394 0.047211 43.992634 9.318835 9.513247 56.495663 -12.529990 -14.082284 59.727581 -15.734581 -7.742589 -1.166265 -0.217579 -4.867974 0.049151 0.354637 15.778781 -3.516344 3.545105 -16.109684 -0.046689 -0.276637 -4.051443 0.626290 -6.256931 -3.847872 -0.036629 -0.306948 13.612561 1.532082 4.827834 -13.438507 0.041895 0.338138 -6.567419
0.004124 8.271755 -0.483036 180.000000 -0.000011 180.000000 -0.716292 -1.336408 1.069461 -0.625773 0.290110 -0.028082 1.079973 -3.114789 -3.468661 0.284619 -5.511374 -4.530465 4.724671 -10.348447 -0.059747 9.060393 -25.095720 -27.710022 0.000000 -90.000000 -0.675796 25.596989 3.915562 -43.805504 -0.000013 0.000017 0.000006 15.541162 21.279846 -2.459599 -3.965902 1.123169 2.624640 2.557986 11.383584 -7.703898 -3.284837 0.054980 0.329192 -3.581799 0.214007 0.711185 -24.161858 4.894023 0.893415 -54.780350 2.261465 8.083014 -8.493455 -0.177759 1.311196 -28.584953 -1.107811 -1.474383 -50.634434 0.635437 6.176633 -21.786131 -0.204411 3.473906 -35.789394 -9.195819 9.480941 -42.171589 -7.420619 8.783738 -48.818138 -9.103879 3.663240 -4.485712 8.661668 -0.008482 6.214437 23.332596 -35.727337 -172.732483 84.176849 -173.441696 -11.084026 -6.303484 -29.006916 -0.000001 0.000009 -0.000003 22.737507 10.599673 11.893888 -0.140429 -4.433771 0.453578 -2.523371 -11.450477 -7.698912 3.198973 -0.593926 1.243736 3.660480 -0.494141 1.036977 23.230518 -4.906901 0.833381 53.110542 -5.794992 6.667230 8.319863 -0.454474 1.365898 28.057081 1.067656 -1.476680 49.113365 -10.468170 -0.189370 21.301218 -4.345849 0.293282 32.176575 9.402357 8.168283 40.672882 -11.223583 -9.535447 47.433292 -13.393834 -4.877565 -1.099648 1.002837 -4.892880 0.049124 0.354545 15.774595 -6.359014 3.737364 -15.953709 -0.083701 -0.521656 -4.515256 0.518828 -8.273523 -3.878042 -0.036610 -0.306869 13.608965 5.854346 4.366589 -12.634180 0.100382 0.885693 -7.164251
0.004124 8.271755 -0.483036 180.000000 -0.000011 180.000000 -0.629331 -1.786244 1.086169 -0.939590 0.400287 -0.076568 0.487140 -2.927567 -3.795533 0.253609 -4.914013 -5.117118 6.009345 -9.557726 -0.074799 7.925157 -24.797247 -38.617287 157.017822 -88.240845 -157.702728 27.333855 1.139224 -44.626648 -0.000004 0.000017 0.000009 17.819002 23.107353 -0.972991 -3.279023 0.904394 2.208956 3.933532 12.202224 -8.285824 -4.845113 0.141170 0.608787 -5.044247 0.314166 0.997618 -12.966211 5.086499 0.135069 -35.805023 0.597716 5.570046 -4.285349 -0.114150 0.652666 -17.215172 -0.841190 -1.533444 -33.177822 -0.320128 4.203891 -14.817339 -0.283290 2.357646 -24.584118 -8.978036 8.279159 -26.303160 -6.343252 5.408624 -36.594986 -7.194628 2.034587 -5.642550 7.787678 0.011141 8.446345 27.991728 -47.920555 -173.665878 83.216805 -174.380737 -16.127069 -3.253360 -28.851830 0.000001 -0.000000 0.000000 25.567894 10.914772 12.302883 -0.113643 -3.749261 0.355908 -3.910032 -12.254764 -8.272614 4.644916 -0.821027 1.665318 5.029252 -0.693310 1.410354 12.109047 -5.111265 0.083895 34.459492 -3.070079 4.981104 4.174680 -0.203197 0.694348 16.860392 0.806882 -1.538034 32.021088 -7.033562 0.839620 14.484072 -2.952559 0.370393 20.475895 9.032201 6.727107 25.094749 -8.761671 -5.545341 35.459312 -10.539255 -2.622352 -1.061862 1.703624 -4.905630 0.049099 0.354454 15.770459 -8.541015 3.992100 -15.784108 -0.115131 -0.755352 -4.964352 0.431827 -9.913737 -3.899527 -0.036591 -0.306787 13.605373 10.371095 3.468935 -11.531862 0.155759 1.655560 -8.255224
